<?xml version="1.0" encoding="UTF-8"?><svg id="Layer_1" xmlns="http://www.w3.org/2000/svg" viewBox="0 0 24 24"><defs><style>.cls-1{fill:none;}.cls-2{fill:#fff;}.cls-3{fill:#ffe615;}.cls-4{fill:#333332;}</style></defs><ellipse class="cls-3" cx="11.05" cy="11.15" rx="9.5" ry="9.4"/><rect class="cls-1" width="24" height="24"/><polygon class="cls-2" points="15 11 15 16 13 16 13 13 9 13 9 16 7 16 7 11 5.5 11 11 5.5 16.5 11 15 11"/><path class="cls-4" d="m11,4l-7,7v1h2v5h4v-3h2v3h4v-5h2v-1l-7-7Zm4,7v5h-2v-3h-4v3h-2v-5h-1.5l5.5-5.5,5.5,5.5h-1.5Z"/><path class="cls-4" d="m11,0C4.92,0,0,4.92,0,11s4.92,11,11,11,11-4.92,11-11S17.08,0,11,0Zm0,20c-4.97,0-9-4.03-9-9S6.03,2,11,2s9,4.03,9,9-4.03,9-9,9Z"/><rect class="cls-4" x="19.43" y="16.8" width="2.25" height="7.51" rx="1" ry="1" transform="translate(-8.51 20.55) rotate(-45)"/></svg>