<?xml version="1.0" encoding="UTF-8"?><svg id="Layer_1" xmlns="http://www.w3.org/2000/svg" viewBox="0 0 24 24"><defs><style>.cls-1{fill:none;}.cls-2{fill:#fff;}.cls-3{fill:#ffe615;}.cls-4{fill:#333332;}</style></defs><rect class="cls-1" width="24" height="24"/><path class="cls-3" d="m20,6l-2.75-2.25-1.5-2.25-12.75-.23v20.73h17V6Z"/><path class="cls-4" d="m22.69,16.44c-.21-.48-.5-.9-.86-1.27-.37-.37-.8-.66-1.29-.86-.5-.2-1.01-.31-1.53-.31s-1.03.1-1.52.31c-.49.2-.92.49-1.29.86-.38.37-.67.79-.87,1.27-.21.48-.31.98-.31,1.5,0,.97.46,2.07,1.37,3.3.7.94,1.58,1.86,2.63,2.76,1.05-.9,1.93-1.82,2.64-2.76.91-1.23,1.36-2.33,1.36-3.3,0-.52-.1-1.02-.31-1.5Z"/><path class="cls-2" d="m18.99,19.5c-.42,0-.77-.15-1.06-.44s-.43-.65-.43-1.07.14-.77.43-1.06.64-.43,1.06-.43.77.14,1.07.43.44.64.44,1.06-.15.77-.44,1.07-.65.44-1.07.44Z"/><rect class="cls-1" width="24" height="24"/><polygon class="cls-4" points="15 0 2 0 2 23 14 23 14 21 4 21 4 2 15 2 15 6 19 6 19 12 21 12 21 6 15 0"/></svg>