<?xml version="1.0" encoding="UTF-8"?><svg id="Layer_1" xmlns="http://www.w3.org/2000/svg" viewBox="0 0 24 24"><defs><style>.cls-1{fill:none;}.cls-2{fill:#fff;}.cls-3{fill:#ffe615;}.cls-4{fill:#333332;}</style></defs><rect class="cls-1" x="0" width="24" height="24"/><path class="cls-3" d="m21.38,16.4l-2.42-1.41-6.19,3.61c-.32.19-.74.28-1.16.28s-.84-.09-1.16-.28l-5.74-3.35-2.42,1.41c-.64.37-.64.98,0,1.35l8.17,4.77c.64.37,1.67.37,2.31,0l8.61-5.02c.64-.37.64-.98,0-1.35Z"/><path class="cls-2" d="m21.82,11.28l-2.5-1.46-6.37,3.71c-.33.19-.76.29-1.19.29s-.86-.1-1.19-.29l-5.91-3.45-2.5,1.46c-.66.38-.66,1,0,1.39l8.41,4.9c.66.38,1.72.38,2.38,0l8.86-5.17c.66-.38.66-1,0-1.39Z"/><path id="top" class="cls-3" d="m21.71,7.55l-8.76,5.11c-.65.38-1.7.38-2.35,0L2.29,7.82c-.65-.38-.65-.99,0-1.37L11.05,1.34c.65-.38,1.7-.38,2.35,0l8.31,4.85c.65.38.65.99,0,1.37Z"/><path class="cls-4" d="m23.43,11.04l-2.9-1.69,2.9-1.69c.76-.45.76-1.17,0-1.61L13.65.33c-.38-.22-.88-.33-1.38-.33s-1,.11-1.38.33L.57,6.35c-.76.45-.76,1.17,0,1.61l9.78,5.7c.38.22.88.33,1.38.33s1-.11,1.38-.33l5.65-3.3-.48.28,2.05,1.2-8.34,4.87s-.12.04-.27.04-.24-.03-.25-.03c0,0,0,0,0,0l-7.83-4.57,2.05-1.2-2.23-1.3-2.9,1.69c-.76.45-.76,1.17,0,1.61l2.9,1.69-2.9,1.69c-.76.45-.76,1.17,0,1.61l9.78,5.7c.38.22.88.33,1.38.33s1-.11,1.38-.33l10.31-6.01c.76-.45.76-1.17,0-1.61l-2.9-1.69,2.9-1.69c.76-.45.76-1.17,0-1.61Zm-11.42.67s-.12.04-.27.04-.24-.03-.25-.03c0,0,0,0,0,0L3.66,7.15,12,2.29s.12-.04.27-.04.24.03.25.03c0,0,0,0,0,0l7.83,4.57-8.34,4.87Zm8.34,5.13l-8.34,4.87s-.12.04-.27.04-.24-.03-.25-.03c0,0,0,0,0,0l-7.83-4.57,2.05-1.2,4.64,2.71c.38.22.88.33,1.38.33s1-.11,1.38-.33l5.17-3.02,2.05,1.2Z"/></svg>