<?xml version="1.0" encoding="UTF-8"?><svg id="Layer_1" xmlns="http://www.w3.org/2000/svg" viewBox="0 0 24 24"><defs><style>.cls-1{fill:none;}.cls-2{fill:#fff;}.cls-3{fill:#ffe615;}.cls-4{fill:#333332;}</style></defs><rect class="cls-1" x="0" width="24" height="24"/><rect class="cls-3" x="1.2" y="5.35" width="4.67" height="6"/><rect class="cls-3" x="11.99" y="5.35" width="6" height="6"/><rect class="cls-2" x="5.62" y="5.35" width="6" height="6"/><rect class="cls-2" x="17.61" y="5.35" width="6" height="6"/><rect class="cls-4" x="2" y="13" width="2" height="11"/><rect class="cls-4" x="2" width="2" height="4"/><rect class="cls-4" x="20" y="13" width="2" height="11"/><rect class="cls-4" x="20" width="2" height="4"/><rect class="cls-4" x="11" y="9" width="2" height="20" transform="translate(31 7) rotate(90)"/><rect class="cls-4" x="2.25" y="7.49" width="7.49" height="2.25" transform="translate(-3.93 12.03) rotate(-74.14)"/><rect class="cls-4" x="8.24" y="7.49" width="7.49" height="2.25" transform="translate(.42 17.8) rotate(-74.14)"/><rect class="cls-4" x="14.24" y="7.49" width="7.49" height="2.25" transform="translate(4.78 23.56) rotate(-74.14)"/><path class="cls-4" d="m0,4v9h24V4H0Zm22,7H2v-5h20v5Z"/></svg>