<?xml version="1.0" encoding="UTF-8"?><svg id="Layer_1" xmlns="http://www.w3.org/2000/svg" viewBox="0 0 24 24"><defs><style>.cls-1{fill:none;}.cls-2{fill:#fff;}.cls-3{fill:#ffe615;}.cls-4{fill:#333332;}</style></defs><rect class="cls-1" x="0" y=".01" width="24" height="24"/><path class="cls-3" d="m3,12.96h1.59l1.78-.28,3.47,3.47,4.5-5.62,4.41,4.41,2.25-3.67v9.75H3s0-8.04,0-8.04Z"/><polygon class="cls-2" points="21 9.75 20.53 9.96 18.75 11.75 14.16 7.15 9.66 12.78 6.38 9.5 3.66 12.21 3 12.21 3 3.01 21 3 21 9.75"/><path class="cls-4" d="m23,1H1v22h22V1ZM3,21v-6.74h1.59l1.78-1.58,3.47,3.47,4.5-5.62,4.41,4.41,2.25-2.25v8.32H3Zm18-11.24h-.47l-1.78,1.99-4.59-4.59-4.5,5.62-3.28-3.28-2.72,2.51h-.66V3h18v6.76Z"/></svg>