<?xml version="1.0" encoding="UTF-8"?><svg id="Layer_1" xmlns="http://www.w3.org/2000/svg" viewBox="0 0 24 24"><defs><style>.cls-1{fill:none;}.cls-2{fill:#ffe615;}.cls-3{fill:#333332;}</style></defs><circle class="cls-2" cx="12" cy="12" r="9.75"/><rect class="cls-1" x="0" width="24" height="24"/><path class="cls-3" d="m12,1C5.92,1,1,5.92,1,12s4.92,11,11,11,11-4.92,11-11S18.08,1,12,1Zm0,20c-4.97,0-9-4.03-9-9S7.03,3,12,3s9,4.03,9,9-4.03,9-9,9Z"/><path class="cls-3" d="m13,15v-5h-3v2h1v3h-2v2h6v-2h-2Z"/><rect class="cls-3" x="11" y="7" width="2" height="2"/></svg>