<?xml version="1.0" encoding="UTF-8"?><svg id="Layer_1" xmlns="http://www.w3.org/2000/svg" viewBox="0 0 24 24"><defs><style>.cls-1{fill:none;}.cls-2{fill:#fff;}.cls-3{fill:#ffe615;}.cls-4{fill:#333332;}</style></defs><rect class="cls-1" width="24" height="24"/><ellipse class="cls-3" cx="11.05" cy="11.15" rx="9.5" ry="9.4"/><polygon class="cls-2" points="15 16 7 16 7 12 9 12 9 5.5 15 8.5 15 16"/><path class="cls-4" d="m16,8L8,3.66v7.34h-2v6h10v-9Zm-1,8H7v-4h2v-6.5l6,3v7.5Z"/><path class="cls-4" d="m11,0C4.92,0,0,4.92,0,11s4.92,11,11,11,11-4.92,11-11S17.08,0,11,0Zm0,20c-4.97,0-9-4.03-9-9S6.03,2,11,2s9,4.03,9,9-4.03,9-9,9Z"/><rect class="cls-4" x="19.43" y="16.8" width="2.25" height="7.51" rx="1" ry="1" transform="translate(-8.51 20.55) rotate(-45)"/></svg>