<?xml version="1.0" encoding="UTF-8"?><svg id="Layer_1" xmlns="http://www.w3.org/2000/svg" viewBox="0 0 24 24"><defs><style>.cls-1{fill:none;}.cls-2{fill:#fff;}.cls-3{fill:#ffe615;}.cls-4{fill:#333332;}</style></defs><rect class="cls-1" width="24" height="24"/><path class="cls-3" d="m4,12h16.04l1.71,10.5H2.34c-.09,0,1.66-10.5,1.66-10.5Z"/><circle class="cls-2" cx="12" cy="5" r="2"/><rect class="cls-1" width="24" height="24"/><polygon class="cls-4" points="21 11 15 11 15 13 19.15 13 21 22 3 22 5 13 9 13 9 11 3 11 0 24 24 24 21 11"/><path class="cls-4" d="m12,1c-2.21,0-4,1.79-4,4s1.79,4,4,4,4-1.79,4-4-1.79-4-4-4Zm0,6c-1.1,0-2-.9-2-2s.9-2,2-2,2,.9,2,2-.9,2-2,2Z"/><rect class="cls-4" x="11" y="8" width="2" height="11"/></svg>