<?xml version="1.0" encoding="UTF-8"?><svg id="Layer_1" xmlns="http://www.w3.org/2000/svg" viewBox="0 0 24 24"><defs><style>.cls-1{fill:none;}.cls-2{fill:#fff;}.cls-3{fill:#ffe615;}.cls-4{fill:#333332;}</style></defs><ellipse class="cls-3" cx="11.05" cy="11.15" rx="9.5" ry="9.4"/><rect class="cls-1" width="24" height="24"/><path class="cls-4" d="m11,0C4.92,0,0,4.92,0,11s4.92,11,11,11,11-4.92,11-11S17.08,0,11,0Zm0,20c-4.97,0-9-4.03-9-9S6.03,2,11,2s9,4.03,9,9-4.03,9-9,9Z"/><rect class="cls-4" x="19.43" y="16.8" width="2.25" height="7.51" rx="1" ry="1" transform="translate(-8.51 20.55) rotate(-45)"/><path class="cls-2" d="m10.65,17.35c-1-1-1.87-2.05-2.59-3.1-1.05-1.56-1.56-2.88-1.56-4.05,0-.85.21-1.64.61-2.35.4-.71.95-1.28,1.63-1.71.68-.43,1.45-.65,2.26-.65s1.58.22,2.28.65c.69.42,1.24,1,1.63,1.71.39.71.59,1.5.59,2.34,0,1.14-.51,2.46-1.56,4.01-.72,1.1-1.59,2.15-2.59,3.14l-.35.35-.35-.35Z"/><path class="cls-4" d="m11,6c.73,0,1.4.19,2.02.57.62.38,1.1.89,1.46,1.53.35.64.53,1.34.53,2.1,0,1.03-.49,2.28-1.47,3.73-.7,1.08-1.55,2.1-2.53,3.06-.98-.99-1.82-2-2.53-3.03-.98-1.46-1.47-2.71-1.47-3.77,0-.76.18-1.46.54-2.1.36-.64.85-1.15,1.46-1.53.61-.38,1.27-.57,2-.57m0-1c-.91,0-1.77.24-2.53.73-.75.47-1.35,1.1-1.79,1.88-.45.79-.67,1.66-.67,2.6,0,1.27.54,2.68,1.64,4.33.74,1.08,1.63,2.15,2.65,3.18l.7.7.71-.7c1.03-1.01,1.92-2.1,2.66-3.23,1.1-1.63,1.63-3.04,1.63-4.28,0-.93-.22-1.8-.65-2.59-.43-.79-1.04-1.43-1.81-1.9-.77-.48-1.63-.72-2.54-.72h0Z"/><path class="cls-4" d="m10.98,12c-.55,0-1.02-.2-1.41-.59-.38-.39-.58-.87-.58-1.42s.19-1.02.58-1.41.85-.58,1.41-.58,1.03.19,1.42.58c.39.38.59.85.59,1.41s-.2,1.03-.59,1.42-.87.59-1.42.59Z"/></svg>